<?xml version="1.0" encoding="UTF-8"?>
<svg width="22px" height="13px" viewBox="0 0 22 13" version="1.1" xmlns="http://www.w3.org/2000/svg" xmlns:xlink="http://www.w3.org/1999/xlink">
    <!-- Generator: Sketch 43.2 (39069) - http://www.bohemiancoding.com/sketch -->
    <title>Group</title>
    <desc>Created with Sketch.</desc>
    <defs></defs>
    <g id="Page-1" stroke="none" stroke-width="1" fill="none" fill-rule="evenodd">
        <g id="AAM_logo-Primary-White" fill-rule="nonzero" fill="#FFFFFF">
            <g id="Group">
                <path d="M17.88,9.72 C17.560842,10.2644295 17.101568,10.7133439 16.55,11.02 L16.65,12.02 L15.85,12.77 L17.9,12.77 L17.48,12.08 C17.9197072,11.3770047 18.0635006,10.5286238 17.88,9.72 Z" id="Shape"></path>
                <path d="M5,3.34 C5.10665152,1.86447639 4.12175889,0.531475157 2.68,0.2 L4.34,3.52 L5,3.34 Z" id="Shape"></path>
                <path d="M3.8,3.92 C3.25866153,2.71433285 2.00444325,1.99245159 0.69,2.13 L3.25,4.47 L3.8,3.92 Z" id="Shape"></path>
                <path d="M19,7.53 L18.4,9 C18.9934863,10.3348945 19.9030027,11.5052534 21.05,12.41 C21.33,12.63 21.39,12.51 21.39,12.51 C20.2632314,11.029638 19.4500133,9.3351502 19,7.53 Z" id="Shape"></path>
                <polygon id="Shape" points="6.83 11.02 5.42 9.52 5.47 11.87 4.42 12.73 6.3 12.73 6 12.14"></polygon>
                <path d="M18.67,6.8 C18.4526417,6.24060699 18.1987615,5.69610071 17.91,5.17 C17.6558098,4.72271992 17.378777,4.28881313 17.08,3.87 C16.94255,4.67257973 16.4977468,5.3900043 15.84,5.87 C16.1916486,5.00143184 16.4270179,4.09021635 16.54,3.16 C15.959368,2.50461223 15.2517492,1.97389817 14.46,1.6 C14.7095472,2.88002006 14.304493,4.20019683 13.38,5.12 C13.6976455,3.86634338 13.7957622,2.56714314 13.67,1.28 C12.5984101,0.956104321 11.4707713,0.860714935 10.36,1 C10.6135514,1.17026439 10.817194,1.4049712 10.95,1.68 C11.6659437,2.96002471 11.6659437,4.51997529 10.95,5.8 C10.95,5.8 10.85,2.32 9.69,1.09 C8.91565749,1.226512 8.16033516,1.45478719 7.44,1.77 C7.28660462,1.83304177 7.13932001,1.91003145 7,2 C7.26085542,2.13214864 7.48955978,2.31989102 7.67,2.55 C8.69557697,3.77552453 9.00651012,5.44773819 8.49,6.96 C8.49,6.96 7.78,3.66 6.49,2.38 C6.00079572,2.79972322 5.56727902,3.28028825 5.2,3.81 C4.56012816,3.93783564 3.98819902,4.29307113 3.59,4.81 C3.585531,4.86991678 3.585531,4.93008322 3.59,4.99 C3.59,5.1 3.49,5.21 3.44,5.32 C3.2,5.89 2.95,6.45 2.75,7.03 C2.55,7.61 2.44,8.21 2.23,8.8 L2.23,8.8 C2.05972554,9.27570338 1.82050606,9.72381875 1.52,10.13 C1.44,10.46 1.89,10.73 2.11,10.73 C2.33,10.73 4.76,8.66 5.11,8.43 C5.25887477,8.11542061 5.3503131,7.77676012 5.38,7.43 C5.49257853,7.85748518 5.51303021,8.30401366 5.44,8.74 C6.03,9.38 7.38,10.74 7.44,10.74 L7.58,11.82 L6.67,12.74 L8.52,12.74 L8.16,12.27 C9.07127312,11.2465863 10.1375928,10.3726091 11.32,9.68 C12.5427446,9.15637965 13.8371694,8.81928986 15.16,8.68 C15.3561728,8.94545904 15.4957236,9.24838641 15.57,9.57 C15.5998812,10.5296804 15.0902507,11.4253946 14.25,11.89 C13.9159506,12.1337529 13.5612726,12.3478981 13.19,12.53 C13.07,12.59 12.85,12.76 12.71,12.76 L15.32,12.76 L14.87,12.04 C18.42,9.82 18.67,6.8 18.67,6.8 Z M4.46,7.64 L4.2,7.64 C4.2446582,7.71735027 4.2446582,7.81264973 4.2,7.89 C4.10774975,8.01387702 3.94520545,8.06264031 3.8,8.01 L3.73,8.01 C3.60885219,7.91937851 3.57081364,7.75454476 3.64,7.62 C3.66749169,7.55834046 3.70850451,7.5036567 3.76,7.46 C3.80169617,7.42996502 3.84949455,7.40948 3.9,7.4 C4.03739526,7.37246618 4.18012061,7.39744312 4.3,7.47 L4.57,7.7 C4.57,7.7 4.47,7.64 4.46,7.64 L4.46,7.64 Z" id="Shape"></path>
            </g>
        </g>
    </g>
</svg>