<?xml version="1.0" encoding="UTF-8"?>
<svg width="18px" height="19px" viewBox="0 0 18 19" version="1.1" xmlns="http://www.w3.org/2000/svg" xmlns:xlink="http://www.w3.org/1999/xlink">
    <!-- Generator: Sketch 42 (36781) - http://www.bohemiancoding.com/sketch -->
    <title>Icon Small</title>
    <desc>Created with Sketch.</desc>
    <defs></defs>
    <g id="Plugin-Banners" stroke="none" stroke-width="1" fill="none" fill-rule="evenodd">
        <g id="Icon-Small" transform="translate(-1.000000, 0.000000)">
            <rect id="Rectangle-2" x="0" y="0" width="18" height="18"></rect>
            <g id="User-Icon" transform="translate(1.000000, 0.000000)" fill="#FFFFFF">
                <g id="User-Body">
                    <path d="M1.47319377,6.58573908 C0.554745344,7.6585469 0,9.0519647 0,10.5749502 C0,13.9644586 2.74773947,16.7121981 6.13724789,16.7121981 C9.52675631,16.7121981 12.2744958,13.9644586 12.2744958,10.5749502 C12.2744958,9.0519647 11.7197504,7.6585469 10.801302,6.58573908 C9.67568066,7.29370796 8.00377079,7.74237426 6.13724789,7.74237426 C4.27072499,7.74237426 2.59881512,7.29370796 1.47319377,6.58573908 Z" id="Combined-Shape"></path>
                    <ellipse id="Oval-3" cx="6.13724789" cy="3.30467194" rx="3.30467194" ry="3.30467194"></ellipse>
                </g>
                <g id="Circled-Lock" transform="translate(8.969824, 10.102854)">
                    <circle id="Oval-3" stroke="#333333" stroke-width="3" cx="3.30467194" cy="3.30467194" r="3.30467194"></circle>
                    <path d="M4.59827732,5.19305591 L2.10548576,5.19305591 C1.93335404,5.19305591 1.79396477,5.05213877 1.79396477,4.87835146 L1.79396477,3.30467194 C1.79396477,3.13088463 1.93350996,2.98981022 2.10548576,2.98981022 L2.26124625,2.98981022 L2.26124625,2.51783218 C2.26124625,1.90949795 2.74957645,1.41628797 3.35188154,1.41628797 C3.95418663,1.41628797 4.44251683,1.90949795 4.44251683,2.51783218 L4.44251683,2.98981022 L4.59827732,2.98981022 C4.77040904,2.98981022 4.90979831,3.13072735 4.90979831,3.30467194 L4.90979831,4.87835146 C4.90979831,5.0519815 4.77025313,5.19305591 4.59827732,5.19305591 L4.59827732,5.19305591 Z M3.97507943,2.51783218 C3.97507943,2.17025755 3.69598906,1.88842328 3.35188154,1.88842328 C3.00777402,1.88842328 2.72868365,2.17025755 2.72868365,2.51783218 L2.72868365,2.98981022 L3.97507943,2.98981022 L3.97507943,2.51783218 L3.97507943,2.51783218 Z" id="Shape"></path>
                </g>
            </g>
        </g>
    </g>
</svg>