<?xml version="1.0" encoding="UTF-8"?>
<svg width="254px" height="43px" viewBox="0 0 254 43" version="1.1" xmlns="http://www.w3.org/2000/svg" xmlns:xlink="http://www.w3.org/1999/xlink">
    <!-- Generator: Sketch 43.2 (39069) - http://www.bohemiancoding.com/sketch -->
    <title>AAM_logo-Primary Full Color</title>
    <desc>Created with Sketch.</desc>
    <defs></defs>
    <g id="Page-1" stroke="none" stroke-width="1" fill="none" fill-rule="evenodd">
        <g id="AAM_logo-Primary-Full-Color" transform="translate(-1.000000, 0.000000)" fill-rule="nonzero">
            <path d="M48.6944681,26.4714894 C47.8252718,27.9541909 46.5744831,29.1767663 45.0723404,30.0119149 L45.3446809,32.7353191 L43.1659574,34.7778723 L48.7489362,34.7778723 L47.6051064,32.8987234 C48.8026069,30.9841829 49.1942144,28.6736988 48.6944681,26.4714894 Z" id="Shape" fill="#BE3026"></path>
            <path d="M13.6170213,9.09617021 C13.9074765,5.07772294 11.2252157,1.4474217 7.2987234,0.544680851 L11.8195745,9.58638298 L13.6170213,9.09617021 Z" id="Shape" fill="#EF4136"></path>
            <path d="M10.3489362,10.6757447 C8.87465267,7.39222564 5.45890927,5.42625114 1.87914894,5.80085106 L8.85106383,12.173617 L10.3489362,10.6757447 Z" id="Shape" fill="#BE3026"></path>
            <path d="M51.7446809,20.507234 L50.1106383,24.5106383 C51.7269413,28.1460957 54.2039222,31.333456 57.3276596,33.7974468 C58.0902128,34.3965957 58.253617,34.0697872 58.253617,34.0697872 C55.1849705,30.038163 52.9702491,25.4233878 51.7446809,20.507234 Z" id="Shape" fill="#EF4136"></path>
            <polygon id="Shape" fill="#BE3026" points="18.6008511 30.0119149 14.7608511 25.9268085 14.8970213 32.3268085 12.0374468 34.6689362 17.1574468 34.6689362 16.3404255 33.0621277"></polygon>
            <path d="M50.8459574,18.5191489 C50.254003,16.9956956 49.5625845,15.5127849 48.7761702,14.08 C48.0839075,12.8618755 47.3294352,11.6801719 46.5157447,10.5395745 C46.1414128,12.7253235 44.9300338,14.6791606 43.1387234,15.986383 C44.0964048,13.6209208 44.7374106,11.1393126 45.0451064,8.60595745 C43.4638106,6.8210716 41.5366788,5.37572268 39.3804255,4.35744681 C40.0600435,7.84345887 38.9569171,11.4388339 36.4391489,13.9438298 C37.3042261,10.529616 37.5714374,6.99136856 37.2289362,3.48595745 C34.3105638,2.60385858 31.2395474,2.34407472 28.2144681,2.72340426 C28.904991,3.18710302 29.4595923,3.82630454 29.8212766,4.57531915 C31.7710807,8.06134388 31.7710807,12.3097199 29.8212766,15.7957447 C29.8212766,15.7957447 29.5489362,6.31829787 26.3897872,2.96851064 C24.2809395,3.34028799 22.2238915,3.96197363 20.2621277,4.82042553 C19.84437,4.99211375 19.4432545,5.20178777 19.0638298,5.44680851 C19.7742446,5.80670269 20.397099,6.31800109 20.8885106,6.94468085 C23.6815713,10.2822796 24.528368,14.8363934 23.1217021,18.9548936 C23.1217021,18.9548936 21.1880851,9.96765957 17.6748936,6.48170213 C16.3425926,7.62477814 15.1619514,8.93355099 14.1617021,10.3761702 C12.4190724,10.7243183 10.8614782,11.6917682 9.77702128,13.0995745 C9.76485038,13.2627521 9.76485038,13.4266096 9.77702128,13.5897872 C9.77702128,13.8893617 9.50468085,14.1889362 9.36851064,14.4885106 C8.71489362,16.0408511 8.03404255,17.5659574 7.4893617,19.1455319 C6.94468085,20.7251064 6.64510638,22.3591489 6.07319149,23.9659574 L6.07319149,23.9659574 C5.6094653,25.2614901 4.95797395,26.4818894 4.13957447,27.5880851 C3.92170213,28.4868085 5.14723404,29.2221277 5.74638298,29.2221277 C6.34553191,29.2221277 12.9634043,23.5846809 13.9165957,22.9582979 C14.3220419,22.101571 14.5710655,21.1792616 14.6519149,20.2348936 C14.9585117,21.3991086 15.0142099,22.6151861 14.8153191,23.8025532 C16.4221277,25.5455319 20.0987234,29.2493617 20.2621277,29.2493617 L20.6434043,32.1906383 L18.1651064,34.6961702 L23.2034043,34.6961702 L22.2229787,33.4161702 C24.7047438,30.6290011 27.6087634,28.2488079 30.8289362,26.3625532 C34.1589639,24.9365233 37.6842059,24.0184915 41.2868085,23.6391489 C41.8210664,24.3621012 42.2011197,25.1870949 42.4034043,26.0629787 C42.4847828,28.6765765 41.096853,31.1159683 38.8085106,32.3812766 C37.8987591,33.0451143 36.9328276,33.6283182 35.9217021,34.1242553 C35.5948936,34.2876596 34.9957447,34.7506383 34.6144681,34.7506383 L41.7225532,34.7506383 L40.4970213,32.7897872 C50.1651064,26.7438298 50.8459574,18.5191489 50.8459574,18.5191489 Z M12.146383,20.8068085 L11.4382979,20.8068085 C11.5599202,21.0174646 11.5599202,21.2770035 11.4382979,21.4876596 C11.1870631,21.8250268 10.7443893,21.9578289 10.3489362,21.8144681 L10.1582979,21.8144681 C9.82836342,21.5676691 9.72476906,21.1187602 9.91319149,20.7523404 C9.98806248,20.5844166 10.099757,20.4354906 10.24,20.3165957 C10.3535555,20.2347984 10.4837298,20.1790094 10.6212766,20.1531915 C10.9954594,20.0782058 11.3841583,20.1462281 11.7106383,20.3438298 L12.4459574,20.9702128 C12.4459574,20.9702128 12.173617,20.8068085 12.146383,20.8068085 L12.146383,20.8068085 Z" id="Shape" fill="#EF4136"></path>
            <path d="M194.151489,40.987234 L192.13617,40.987234 L192.13617,23.1217021 C193.654725,22.6517505 195.231221,22.3951115 196.820426,22.3591489 C200.878298,22.3591489 202.675745,24.6195745 202.675745,29.0042553 C202.675745,33.3889362 200.68766,35.9217021 197.446809,35.9217021 C196.275479,35.9286899 195.128493,35.5874378 194.151489,34.9412766 L194.151489,40.987234 Z M196.575319,24.0748936 C195.749872,24.0703776 194.929857,24.2085824 194.151489,24.4834043 L194.151489,33.1165957 C195.043745,33.8461705 196.158126,34.2496532 197.310638,34.2604255 C199.734468,34.2604255 200.660426,31.8638298 200.660426,29.2493617 C200.660426,26.6348936 199.897872,24.0748936 196.575319,24.0748936 L196.575319,24.0748936 Z" id="Shape" fill="#BCBEC0"></path>
            <path d="M207.332766,17.5931915 L207.332766,31.9455319 C207.332766,33.6885106 207.659574,34.3148936 208.966809,34.3148936 C209.564989,34.3062614 210.152744,34.1569903 210.682553,33.8791489 L211.145532,35.2680851 C210.318305,35.7403757 209.373601,35.9671048 208.422128,35.9217021 C205.399149,35.9217021 205.262979,33.933617 205.262979,32.2178723 L205.262979,17.5931915 L207.332766,17.5931915 Z" id="Shape" fill="#BCBEC0"></path>
            <path d="M222.148085,22.7131915 L222.148085,33.6068085 L222.311489,35.4859574 L220.595745,35.4859574 L220.377872,33.7157447 L220.377872,33.7157447 C219.483595,35.0778994 217.948955,35.8812681 216.32,35.84 C213.596596,35.84 212.153191,34.3965957 212.153191,31.4280851 L212.153191,22.6314894 L214.168511,22.6314894 L214.168511,30.8017021 C214.168511,32.7353191 214.577021,34.2059574 216.891915,34.2059574 C218.661566,34.2013182 220.142264,32.8616387 220.323404,31.1012766 L220.323404,22.5770213 L222.148085,22.7131915 Z" id="Shape" fill="#BCBEC0"></path>
            <path d="M226.042553,39.026383 C226.204836,36.9843553 227.499104,35.2060509 229.39234,34.4238298 C227.050213,34.2604255 224.762553,32.9259574 224.762553,28.813617 C224.549934,27.1225388 225.098981,25.4243322 226.261356,24.1778028 C227.423732,22.9312734 229.079484,22.2650582 230.781277,22.3591489 C232.412321,22.356231 234.029266,22.6611407 235.547234,23.2578723 L235.547234,32.9259574 L235.547234,36.466383 C235.356596,40.1157447 233.640851,42.3761702 230.100426,42.3761702 C227.431489,42.3761702 226.042553,41.1234043 226.042553,39.026383 Z M233.559149,24.347234 C232.590812,24.0376676 231.580016,23.8814537 230.563404,23.8842553 C228.248511,23.8842553 226.750638,25.4910638 226.750638,28.6229787 C226.750638,30.692766 227.131915,33.2255319 230.26383,33.2255319 C231.128159,33.3131549 231.987958,33.0212494 232.620282,32.4255065 C233.252606,31.8297637 233.59517,30.9888632 233.559149,30.1208511 L233.559149,24.347234 Z M230.26383,40.6876596 C232.82383,40.6876596 233.531915,38.2910638 233.531915,35.4042553 L233.531915,33.4161702 C229.719149,35.186383 228.085106,36.6297872 228.085106,38.6451064 C227.97617,40.2519149 228.765957,40.8510638 230.26383,40.8510638 L230.26383,40.6876596 Z" id="Shape" fill="#BCBEC0"></path>
            <path d="M239.795745,17.7021277 C240.547792,17.7021277 241.157447,18.3117825 241.157447,19.0638298 C241.157447,19.8158771 240.547792,20.4255319 239.795745,20.4255319 C239.434413,20.4262384 239.088905,20.2773545 238.841261,20.0142324 C238.593617,19.7511104 238.465927,19.3972214 238.488511,19.0365957 C238.481188,18.6852014 238.615675,18.3456617 238.861627,18.0945856 C239.107579,17.8435096 239.444274,17.7020514 239.795745,17.7021277 Z M238.788085,35.5676596 L238.788085,22.7131915 L240.803404,22.7131915 L240.803404,35.5676596 L238.788085,35.5676596 Z" id="Shape" fill="#BCBEC0"></path>
            <path d="M244.071489,35.5676596 L244.071489,24.6740426 L243.935319,22.7404255 L245.678298,22.7404255 L245.89617,24.6195745 C246.807081,23.2064492 248.381875,22.3624418 250.062979,22.386383 C252.786383,22.386383 254.175319,23.8842553 254.175319,26.8255319 L254.175319,35.5948936 L252.16,35.5948936 L252.16,27.4246809 C252.16,25.5182979 251.751489,23.9659574 249.436596,23.9659574 C247.617437,23.9459926 246.093778,25.3387115 245.950638,27.1523404 L245.950638,35.5676596 L244.071489,35.5676596 Z" id="Shape" fill="#BCBEC0"></path>
            <path d="M99.186383,20.7795745 C99.2365776,16.8743092 100.838133,13.1494003 103.637852,10.4263158 C106.437571,7.70323131 110.205484,6.20564666 114.110638,6.26382979 C116.966878,6.20309061 119.75006,7.16947302 121.954043,8.98723404 L121.954043,8.98723404 L121.954043,6.26382979 L129.41617,6.26382979 L129.41617,34.4782979 L121.954043,34.4782979 L121.954043,32.027234 C119.710163,34.1842467 116.674422,35.3177212 113.565957,35.1591489 C109.704438,35.3226988 105.951139,33.8603012 103.218185,31.1273468 C100.485231,28.3943925 99.0228331,24.6410936 99.186383,20.7795745 L99.186383,20.7795745 Z M121.954043,20.7795745 C122.122991,17.9613671 120.715444,15.281844 118.299083,13.8216944 C115.882722,12.3615449 112.856002,12.3615449 110.439641,13.8216944 C108.02328,15.281844 106.615732,17.9613671 106.784681,20.7795745 C106.725451,22.8200621 107.49868,24.7968821 108.926638,26.2556598 C110.354597,27.7144375 112.314458,28.5296944 114.355745,28.5140426 C116.40645,28.5528508 118.382717,27.7458546 119.820107,26.2827048 C121.257497,24.819555 122.029266,22.8292669 121.954043,20.7795745 L121.954043,20.7795745 Z" id="Shape" fill="#939598"></path>
            <path d="M65.0893617,20.7795745 C65.1395563,16.8743092 66.7411116,13.1494003 69.5408308,10.4263158 C72.3405499,7.70323131 76.1084626,6.20564666 80.013617,6.26382979 C82.8772612,6.20860004 85.6671521,7.17396021 87.8842553,8.98723404 L87.8842553,8.98723404 L87.8842553,6.26382979 L95.3191489,6.26382979 L95.3191489,34.4782979 L87.8842553,34.4782979 L87.8842553,32.027234 C85.6267523,34.1801302 82.5846749,35.3122949 79.4689362,35.1591489 C75.607417,35.3226988 71.8541182,33.8603012 69.1211638,31.1273468 C66.3882095,28.3943925 64.9258118,24.6410936 65.0893617,20.7795745 L65.0893617,20.7795745 Z M87.8842553,20.7795745 C87.8842553,16.5831504 84.4823815,13.1812766 80.2859574,13.1812766 C76.0895334,13.1812766 72.6876596,16.5831504 72.6876596,20.7795745 C72.6876596,24.9759985 76.0895334,28.3778723 80.2859574,28.3778723 C84.4823815,28.3778723 87.8842553,24.9759985 87.8842553,20.7795745 L87.8842553,20.7795745 Z" id="Shape" fill="#939598"></path>
            <path d="M172.364255,6.2093617 C168.131842,6.2056084 164.073104,7.89184764 161.089362,10.893617 C158.109014,7.73159508 153.911992,6.00516041 149.569362,6.15489362 C146.836317,6.17541255 144.15434,6.89748353 141.780426,8.25191489 L141.780426,6.26382979 L134.236596,6.26382979 L134.236596,34.6689362 L141.834894,34.6689362 L141.834894,21.0519149 C141.75967,19.0022225 142.531439,17.0119343 143.968829,15.5487845 C145.406219,14.0856347 147.382486,13.2786386 149.433191,13.3174468 C151.49106,13.2542522 153.481785,14.0535079 154.924617,15.5221975 C156.36745,16.9908872 157.131223,18.9954937 157.031489,21.0519149 L157.031489,34.6689362 L164.629787,34.6689362 L164.629787,21.0519149 C164.460838,18.2337075 165.868386,15.5541845 168.284747,14.0940349 C170.701108,12.6338853 173.727828,12.6338853 176.144189,14.0940349 C178.56055,15.5541845 179.968098,18.2337075 179.799149,21.0519149 L179.799149,34.6689362 L187.397447,34.6689362 L187.397447,21.0519149 C187.573177,17.0304995 186.039147,13.1224871 183.174759,10.2944231 C180.310371,7.46635919 176.383101,5.98232636 172.364255,6.2093617 Z" id="Shape" fill="#939598"></path>
        </g>
    </g>
</svg>