<?xml version="1.0" encoding="UTF-8"?>
<svg width="350px" height="213px" viewBox="0 0 350 213" version="1.1" xmlns="http://www.w3.org/2000/svg" xmlns:xlink="http://www.w3.org/1999/xlink">
    <g stroke="none" stroke-width="1" fill="none" fill-rule="evenodd">
        <g fill-rule="nonzero">
            <path d="M290.626506,160.578313 C285.243118,169.761461 277.496328,177.333511 268.192771,182.506024 L269.879518,199.373494 L256.385542,212.024096 L290.963855,212.024096 L283.879518,200.385542 C291.296266,188.527789 293.721697,174.217751 290.626506,160.578313 Z" id="Shape" fill="#B2AFCC"></path>
            <path d="M73.373494,52.9638554 C75.1724352,28.0755054 58.5597884,5.59114723 34.2409639,5.68434189e-14 L62.2409639,56 L73.373494,52.9638554 Z" id="Shape" fill="#DFDCFF"></path>
            <path d="M53.1325301,62.746988 C44.0015197,42.4104336 22.8460307,30.2341232 0.674698795,32.5542169 L43.8554217,72.0240964 L53.1325301,62.746988 Z" id="Shape" fill="#B2AFCC"></path>
            <path d="M309.518072,123.638554 L299.39759,148.433735 C309.408202,170.950028 324.749443,190.691021 344.096386,205.951807 C348.819277,209.662651 349.831325,207.638554 349.831325,207.638554 C330.825589,182.668593 317.108659,154.086871 309.518072,123.638554 Z" id="Shape" fill="#DFDCFF"></path>
            <polygon fill="#B2AFCC" points="104.240964 182.506024 80.4578313 157.204819 81.3012048 196.843373 63.5903614 211.349398 95.3012048 211.349398 90.2409639 201.39759"></polygon>
            <path d="M303.951807,111.325301 C300.285523,101.889756 296.003206,92.7053131 291.13253,83.8313253 C286.844984,76.286842 282.172142,68.9679323 277.13253,61.9036145 C274.814097,75.4411039 267.311392,87.5422412 256.216867,95.6385542 C262.14829,80.988007 266.118375,65.6181071 268.024096,49.9277108 C258.230303,38.8729774 246.294565,29.921174 232.939759,23.6144578 C237.148989,45.2051576 230.316749,67.4731995 214.722892,82.9879518 C220.080768,61.8419365 221.735748,39.9277157 219.614458,18.2168675 C201.539448,12.7535669 182.519034,11.1445893 163.783133,13.4939759 C168.059903,16.3659053 171.494839,20.3248154 173.73494,24.9638554 C185.811099,46.5546336 185.811099,72.8670531 173.73494,94.4578313 C173.73494,94.4578313 172.048193,35.7590361 152.481928,15.0120482 C139.420729,17.3146602 126.680352,21.1650851 114.53012,26.4819277 C111.942729,27.5452828 109.45841,28.8439039 107.108434,30.3614458 C111.508405,32.590459 115.366069,35.757198 118.409639,39.6385542 C135.708527,60.3100523 140.953183,88.5160658 132.240964,114.024096 C132.240964,114.024096 120.26506,58.3614458 98.5060241,36.7710843 C90.2543857,43.8507531 82.9420557,51.9566694 76.746988,60.8915663 C65.953969,63.04783 56.3069715,69.039754 49.5903614,77.7590361 C49.5149807,78.7696807 49.5149807,79.7845362 49.5903614,80.7951807 C49.5903614,82.6506024 47.9036145,84.5060241 47.060241,86.3614458 C43.0120482,95.9759036 38.7951807,105.421687 35.4216867,115.204819 C32.0481928,124.987952 30.1927711,135.108434 26.6506024,145.060241 L26.6506024,145.060241 C23.7785031,153.084153 19.7434757,160.642726 14.6746988,167.493976 C13.3253012,173.060241 20.9156627,177.614458 24.626506,177.614458 C28.3373494,177.614458 69.3253012,142.698795 75.2289157,138.819277 C77.7400563,133.513119 79.2823896,127.800773 79.7831325,121.951807 C81.6820475,129.162401 82.0270157,136.694206 80.7951807,144.048193 C90.746988,154.843373 113.518072,177.783133 114.53012,177.783133 L116.891566,196 L101.542169,211.518072 L132.746988,211.518072 L126.674699,203.590361 C142.045571,186.327962 160.031686,171.586178 179.975904,159.903614 C200.600511,151.071464 222.434182,145.385612 244.746988,143.036145 C248.055927,147.513767 250.409796,152.623385 251.662651,158.048193 C252.16667,174.235573 243.570494,189.344005 229.39759,197.180723 C223.763022,201.292218 217.780502,204.904305 211.518072,207.975904 C209.493976,208.987952 205.783133,211.855422 203.421687,211.855422 L247.445783,211.855422 L239.855422,199.710843 C299.73494,162.26506 303.951807,111.325301 303.951807,111.325301 Z M64.2650602,125.493976 L59.8795181,125.493976 C60.6327889,126.798679 60.6327889,128.40614 59.8795181,129.710843 C58.3234898,131.800335 55.5817786,132.622849 53.1325301,131.73494 L51.9518072,131.73494 C49.9083503,130.206384 49.2667361,127.426056 50.4337349,125.156627 C50.8974502,124.116586 51.5892327,123.194209 52.4578313,122.457831 C53.1611402,121.951217 53.967378,121.605687 54.8192771,121.445783 C57.1367876,120.981357 59.544203,121.402655 61.5662651,122.626506 L66.1204819,126.506024 C66.1204819,126.506024 64.4337349,125.493976 64.2650602,125.493976 L64.2650602,125.493976 Z" id="Shape" fill="#DFDCFF"></path>
        </g>
    </g>
</svg>